<svg xmlns="http://www.w3.org/2000/svg" width="1200" height="627" viewBox="0 0 1200 627" role="img" aria-labelledby="title desc">
  <title id="title">Private Balance</title>
  <desc id="desc">Gestión financiera privada y local-first para profesionales independientes.</desc>
  <defs>
    <linearGradient id="background" x1="76" y1="40" x2="1120" y2="627" gradientUnits="userSpaceOnUse">
      <stop stop-color="#10261D"/>
      <stop offset="1" stop-color="#07110D"/>
    </linearGradient>
    <radialGradient id="glow" cx="0" cy="0" r="1" gradientTransform="translate(1005 124) rotate(118) scale(430 500)" gradientUnits="userSpaceOnUse">
      <stop stop-color="#1DAA7B" stop-opacity="0.24"/>
      <stop offset="1" stop-color="#1DAA7B" stop-opacity="0"/>
    </radialGradient>
    <linearGradient id="chart" x1="866" y1="438" x2="1060" y2="240" gradientUnits="userSpaceOnUse">
      <stop stop-color="#37C99A"/>
      <stop offset="1" stop-color="#A8E8CF"/>
    </linearGradient>
    <filter id="shadow" x="-30%" y="-30%" width="160%" height="160%">
      <feDropShadow dx="0" dy="22" stdDeviation="24" flood-color="#000000" flood-opacity="0.28"/>
    </filter>
  </defs>

  <rect width="1200" height="627" fill="url(#background)"/>
  <rect width="1200" height="627" fill="url(#glow)"/>
  <path d="M0 100H1200M0 527H1200" stroke="#CFE1D7" stroke-opacity="0.1"/>

  <g transform="translate(82 80)">
    <rect width="48" height="8" x="18" y="10" rx="2" fill="#45C89A"/>
    <circle cx="42" cy="34" r="5" fill="#45C89A"/>
    <rect width="84" height="8" y="50" rx="2" fill="#45C89A"/>
  </g>

  <g font-family="Inter, ui-sans-serif, system-ui, -apple-system, BlinkMacSystemFont, 'Segoe UI', sans-serif">
    <text x="82" y="198" fill="#85DDBE" font-size="18" font-weight="700" letter-spacing="4">FINANZAS LOCAL-FIRST</text>
    <text x="82" y="290" fill="#F0F4EF" font-family="Georgia, 'Times New Roman', serif" font-size="74" font-weight="700">Private Balance</text>
    <text x="82" y="352" fill="#D5DED8" font-size="27" letter-spacing="0.6">Tu actividad. Tus datos. Tu control.</text>
    <text x="82" y="420" fill="#9DB0A5" font-size="20">Ingresos · gastos · agenda · reportes</text>
    <text x="82" y="490" fill="#66D4AC" font-size="18" font-weight="700">finance.orpira.es</text>
  </g>

  <g filter="url(#shadow)">
    <rect x="742" y="92" width="374" height="442" rx="34" fill="#10271E" stroke="#90D9BE" stroke-opacity="0.24"/>
    <rect x="774" y="124" width="310" height="72" rx="18" fill="#163326"/>
    <circle cx="814" cy="160" r="17" fill="#45C89A" fill-opacity="0.16"/>
    <path d="M805 160h18M814 151v18" stroke="#6ED8B2" stroke-width="3" stroke-linecap="round"/>
    <rect x="848" y="147" width="120" height="9" rx="4.5" fill="#DCE8E0" fill-opacity="0.9"/>
    <rect x="848" y="165" width="82" height="7" rx="3.5" fill="#91A99A" fill-opacity="0.65"/>

    <path d="M786 421C830 404 842 354 881 363C922 373 934 317 970 327C1008 338 1022 266 1071 242" fill="none" stroke="url(#chart)" stroke-width="8" stroke-linecap="round" stroke-linejoin="round"/>
    <path d="M786 421C830 404 842 354 881 363C922 373 934 317 970 327C1008 338 1022 266 1071 242V466H786Z" fill="#36C997" fill-opacity="0.08"/>
    <path d="M786 466H1072" stroke="#BCD4C6" stroke-opacity="0.18"/>

    <g fill="#45C89A">
      <rect x="797" y="435" width="20" height="31" rx="5" fill-opacity="0.28"/>
      <rect x="837" y="409" width="20" height="57" rx="5" fill-opacity="0.38"/>
      <rect x="877" y="420" width="20" height="46" rx="5" fill-opacity="0.32"/>
      <rect x="917" y="372" width="20" height="94" rx="5" fill-opacity="0.5"/>
      <rect x="957" y="391" width="20" height="75" rx="5" fill-opacity="0.42"/>
      <rect x="997" y="334" width="20" height="132" rx="5" fill-opacity="0.64"/>
      <rect x="1037" y="286" width="20" height="180" rx="5" fill-opacity="0.8"/>
    </g>
  </g>
</svg>
